<?xml version="1.0" encoding="UTF-8"?>
<!DOCTYPE svg PUBLIC "-//W3C//DTD SVG 1.1//EN" "http://www.w3.org/Graphics/SVG/1.1/DTD/svg11.dtd">
<!-- Creator: CorelDRAW 2021 (64-Bit) -->
<svg xmlns="http://www.w3.org/2000/svg" xml:space="preserve" width="0.106984in" height="0.107492in" version="1.1" style="shape-rendering:geometricPrecision; text-rendering:geometricPrecision; image-rendering:optimizeQuality; fill-rule:evenodd; clip-rule:evenodd"
viewBox="0 0 2.36 2.37"
 xmlns:xlink="http://www.w3.org/1999/xlink"
 xmlns:xodm="http://www.corel.com/coreldraw/odm/2003">
 <defs>
  <style type="text/css">
   <![CDATA[
    .fil0 {fill:#FF6600;fill-rule:nonzero}
   ]]>
  </style>
 </defs>
 <g id="Layer_x0020_1">
  <metadata id="CorelCorpID_0Corel-Layer"/>
  <path class="fil0" d="M2.31 1.17l0 0.89c0,0.08 -0.03,0.16 -0.09,0.21 -0.05,0.05 -0.13,0.09 -0.21,0.09l-1.71 0c-0.08,0 -0.16,-0.03 -0.21,-0.09 -0.05,-0.05 -0.09,-0.13 -0.09,-0.21l0 -1.71c0,-0.08 0.03,-0.16 0.09,-0.21 0.05,-0.05 0.13,-0.09 0.21,-0.09l0.89 0c0.05,0 0.1,0.02 0.13,0.06 0.03,0.03 0.06,0.08 0.06,0.13 0,0.05 -0.02,0.1 -0.06,0.13 -0.03,0.03 -0.08,0.06 -0.13,0.06l-0.82 0 0 1.56 1.56 0 0 -0.82c0,-0.05 0.02,-0.1 0.06,-0.13 0.03,-0.03 0.08,-0.06 0.13,-0.06 0.05,0 0.1,0.02 0.13,0.06 0.03,0.03 0.06,0.08 0.06,0.13z"/>
  <path class="fil0" d="M2.36 0.12l0 0.52c0,0.04 -0.02,0.08 -0.05,0.11 -0.03,0.03 -0.07,0.05 -0.11,0.05 -0.04,0 -0.08,-0.02 -0.11,-0.05 -0.03,-0.03 -0.05,-0.07 -0.05,-0.11l0 -0.1 -0.6 0.6c-0.01,0.01 -0.03,0.02 -0.05,0.03 -0.02,0.01 -0.04,0.01 -0.06,0.01 -0.04,0 -0.08,-0.02 -0.11,-0.05 -0.03,-0.03 -0.05,-0.07 -0.05,-0.11 0,-0.02 0,-0.04 0.01,-0.06l0 -0c0.01,-0.02 0.02,-0.03 0.03,-0.05l0.59 -0.6 -0.1 0c-0.04,0 -0.08,-0.02 -0.11,-0.05 -0.03,-0.03 -0.05,-0.07 -0.05,-0.11 0,-0.04 0.02,-0.08 0.05,-0.11 0.03,-0.03 0.07,-0.05 0.11,-0.05l0.52 0c0.03,0 0.06,0.01 0.08,0.04 0.02,0.02 0.04,0.05 0.04,0.09z"/>
 </g>
</svg>
